<svg width="77" height="22" viewBox="0 0 77 22" fill="none" xmlns="http://www.w3.org/2000/svg">
<path d="M17.96 21.048H13.496L8.216 12.528L7.088 11.712L7.448 10.992H8.792C9.88 10.992 10.736 10.72 11.36 10.176C12 9.616 12.32 8.856 12.32 7.896C12.32 6.632 11.968 5.584 11.264 4.752C10.56 3.904 9.536 3.48 8.192 3.48C7.296 3.48 6.472 3.744 5.72 4.272V19.224L8.24 20.088L7.76 21.048H0.464V20.304L2.72 18.528V3.936L0.224 3.12L0.704 2.16H3.488C4.944 2.16 6.376 2.112 7.784 2.016C8.808 1.952 9.568 1.92 10.064 1.92C11.136 1.92 12.088 2.136 12.92 2.568C13.768 3 14.416 3.584 14.864 4.32C15.328 5.056 15.56 5.864 15.56 6.744C15.56 7.544 15.312 8.312 14.816 9.048C14.32 9.768 13.664 10.4 12.848 10.944C12.048 11.472 11.2 11.872 10.304 12.144L11.864 12.672L15.584 18.672L18.44 20.088L17.96 21.048ZM42.5503 21.024H35.2543V20.28L37.5103 18.504V5.232L31.1023 21.024H29.7823L23.4223 5.064V18.792L25.9423 20.064L25.4622 21.024H19.8463V20.28L22.1023 18.504V4.44L19.6063 3.096L20.0863 2.136H25.2943L31.2943 17.208L37.2703 2.136H42.7903V2.88L40.5103 4.656V19.176L43.0303 20.064L42.5503 21.024ZM48.5544 17.28C49.0344 17.28 49.4264 17.456 49.7304 17.808C50.0504 18.16 50.2104 18.6 50.2104 19.128C50.2104 19.496 50.0984 19.848 49.8744 20.184C49.6504 20.504 49.3704 20.76 49.0344 20.952C48.6984 21.144 48.3704 21.24 48.0504 21.24C47.5704 21.24 47.1704 21.064 46.8504 20.712C46.5464 20.36 46.3944 19.92 46.3944 19.392C46.3944 19.024 46.5064 18.68 46.7304 18.36C46.9544 18.024 47.2344 17.76 47.5704 17.568C47.9064 17.376 48.2344 17.28 48.5544 17.28ZM60.3832 21H53.6872V20.256L55.8232 18.576V11.568L53.6872 10.08V9.336L57.7912 7.8H58.7032V19.2L60.8632 20.04L60.3832 21ZM57.1672 0.599999C57.6472 0.599999 58.0392 0.775999 58.3432 1.128C58.6632 1.48 58.8232 1.92 58.8232 2.448C58.8232 2.816 58.7112 3.168 58.4872 3.504C58.2632 3.824 57.9832 4.08 57.6472 4.272C57.3112 4.464 56.9832 4.56 56.6632 4.56C56.1832 4.56 55.7832 4.384 55.4632 4.032C55.1592 3.68 55.0072 3.24 55.0072 2.712C55.0072 2.344 55.1192 2 55.3432 1.68C55.5672 1.344 55.8472 1.08 56.1832 0.887999C56.5192 0.695999 56.8472 0.599999 57.1672 0.599999ZM70.5993 8.016C71.6553 8.016 72.5993 8.296 73.4313 8.856C74.2793 9.4 74.9353 10.144 75.3993 11.088C75.8793 12.032 76.1193 13.072 76.1193 14.208C76.1193 15.44 75.7433 16.6 74.9913 17.688C74.2393 18.76 73.2953 19.624 72.1593 20.28C71.0393 20.92 69.9513 21.24 68.8953 21.24C67.8393 21.24 66.8873 20.968 66.0393 20.424C65.2073 19.864 64.5513 19.112 64.0713 18.168C63.6073 17.224 63.3753 16.184 63.3753 15.048C63.3753 13.816 63.7513 12.664 64.5033 11.592C65.2553 10.504 66.1913 9.64 67.3113 9C68.4473 8.344 69.5433 8.016 70.5993 8.016ZM69.2073 10.032C67.3993 10.032 66.4953 11.32 66.4953 13.896C66.4953 15.416 66.8233 16.688 67.4793 17.712C68.1353 18.72 69.0713 19.224 70.2873 19.224C72.0953 19.224 72.9993 17.928 72.9993 15.336C72.9993 13.832 72.6713 12.576 72.0153 11.568C71.3593 10.544 70.4233 10.032 69.2073 10.032Z" fill="#3D4A5C"/>
</svg>
